<mxfile host="Electron" modified="2024-04-08T10:01:30.438Z" agent="Mozilla/5.0 (Macintosh; Intel Mac OS X 10_15_7) AppleWebKit/537.36 (KHTML, like Gecko) draw.io/22.1.16 Chrome/120.0.6099.109 Electron/28.1.0 Safari/537.36" etag="1TuKjRYvnwY1XS4ykWgz" version="22.1.16" type="device" pages="2">
  <diagram name="Page-1" id="v_pH-upielrP5TEvdxz5">
    <mxGraphModel dx="1194" dy="605" grid="1" gridSize="10" guides="1" tooltips="1" connect="1" arrows="1" fold="1" page="1" pageScale="1" pageWidth="827" pageHeight="1169" math="0" shadow="0">
      <root>
        <mxCell id="0" />
        <mxCell id="1" parent="0" />
        <mxCell id="LuUeZSiwlCKiO2b5Vnxp-4" value="Start" style="strokeWidth=2;html=1;shape=mxgraph.flowchart.terminator;whiteSpace=wrap;" parent="1" vertex="1">
          <mxGeometry x="155" y="100" width="100" height="60" as="geometry" />
        </mxCell>
        <mxCell id="LuUeZSiwlCKiO2b5Vnxp-5" value="Slutt" style="strokeWidth=2;html=1;shape=mxgraph.flowchart.terminator;whiteSpace=wrap;" parent="1" vertex="1">
          <mxGeometry x="155" y="680" width="100" height="60" as="geometry" />
        </mxCell>
        <mxCell id="LuUeZSiwlCKiO2b5Vnxp-6" value="hent inn alder&amp;nbsp;" style="shape=parallelogram;html=1;strokeWidth=2;perimeter=parallelogramPerimeter;whiteSpace=wrap;rounded=1;arcSize=0;size=0.23;" parent="1" vertex="1">
          <mxGeometry x="145" y="220" width="110" height="60" as="geometry" />
        </mxCell>
        <mxCell id="LuUeZSiwlCKiO2b5Vnxp-7" value="" style="endArrow=classic;html=1;rounded=0;" parent="1" edge="1">
          <mxGeometry width="50" height="50" relative="1" as="geometry">
            <mxPoint x="204.5" y="160" as="sourcePoint" />
            <mxPoint x="204.5" y="220" as="targetPoint" />
          </mxGeometry>
        </mxCell>
        <mxCell id="LuUeZSiwlCKiO2b5Vnxp-10" value="&amp;gt;=15" style="strokeWidth=2;html=1;shape=mxgraph.flowchart.decision;whiteSpace=wrap;" parent="1" vertex="1">
          <mxGeometry x="125" y="320" width="150" height="80" as="geometry" />
        </mxCell>
        <mxCell id="LuUeZSiwlCKiO2b5Vnxp-12" style="edgeStyle=orthogonalEdgeStyle;rounded=0;orthogonalLoop=1;jettySize=auto;html=1;exitX=0.5;exitY=1;exitDx=0;exitDy=0;entryX=0.5;entryY=0;entryDx=0;entryDy=0;entryPerimeter=0;" parent="1" source="LuUeZSiwlCKiO2b5Vnxp-6" target="LuUeZSiwlCKiO2b5Vnxp-10" edge="1">
          <mxGeometry relative="1" as="geometry" />
        </mxCell>
        <mxCell id="LuUeZSiwlCKiO2b5Vnxp-18" style="edgeStyle=orthogonalEdgeStyle;rounded=0;orthogonalLoop=1;jettySize=auto;html=1;" parent="1" source="LuUeZSiwlCKiO2b5Vnxp-13" target="LuUeZSiwlCKiO2b5Vnxp-16" edge="1">
          <mxGeometry relative="1" as="geometry" />
        </mxCell>
        <mxCell id="LuUeZSiwlCKiO2b5Vnxp-13" value="barnebilett = 30 kr&amp;nbsp;" style="rounded=1;whiteSpace=wrap;html=1;absoluteArcSize=1;arcSize=14;strokeWidth=2;" parent="1" vertex="1">
          <mxGeometry x="125" y="440" width="160" height="60" as="geometry" />
        </mxCell>
        <mxCell id="LuUeZSiwlCKiO2b5Vnxp-16" value="Vis penger bilett&amp;nbsp;" style="shape=parallelogram;html=1;strokeWidth=2;perimeter=parallelogramPerimeter;whiteSpace=wrap;rounded=1;arcSize=12;size=0.23;" parent="1" vertex="1">
          <mxGeometry x="120" y="555" width="165" height="60" as="geometry" />
        </mxCell>
        <mxCell id="LuUeZSiwlCKiO2b5Vnxp-17" style="edgeStyle=orthogonalEdgeStyle;rounded=0;orthogonalLoop=1;jettySize=auto;html=1;entryX=0.45;entryY=0.008;entryDx=0;entryDy=0;entryPerimeter=0;" parent="1" source="LuUeZSiwlCKiO2b5Vnxp-10" target="LuUeZSiwlCKiO2b5Vnxp-13" edge="1">
          <mxGeometry relative="1" as="geometry" />
        </mxCell>
        <mxCell id="LuUeZSiwlCKiO2b5Vnxp-19" style="edgeStyle=orthogonalEdgeStyle;rounded=0;orthogonalLoop=1;jettySize=auto;html=1;entryX=0.5;entryY=0;entryDx=0;entryDy=0;entryPerimeter=0;" parent="1" source="LuUeZSiwlCKiO2b5Vnxp-16" target="LuUeZSiwlCKiO2b5Vnxp-5" edge="1">
          <mxGeometry relative="1" as="geometry" />
        </mxCell>
        <mxCell id="LuUeZSiwlCKiO2b5Vnxp-20" value="" style="endArrow=classic;html=1;rounded=0;" parent="1" edge="1">
          <mxGeometry width="50" height="50" relative="1" as="geometry">
            <mxPoint x="275" y="360" as="sourcePoint" />
            <mxPoint x="335" y="360" as="targetPoint" />
          </mxGeometry>
        </mxCell>
        <mxCell id="LuUeZSiwlCKiO2b5Vnxp-24" value="" style="edgeStyle=orthogonalEdgeStyle;rounded=0;orthogonalLoop=1;jettySize=auto;html=1;" parent="1" source="LuUeZSiwlCKiO2b5Vnxp-22" target="LuUeZSiwlCKiO2b5Vnxp-23" edge="1">
          <mxGeometry relative="1" as="geometry" />
        </mxCell>
        <mxCell id="LuUeZSiwlCKiO2b5Vnxp-27" value="" style="edgeStyle=orthogonalEdgeStyle;rounded=0;orthogonalLoop=1;jettySize=auto;html=1;" parent="1" source="LuUeZSiwlCKiO2b5Vnxp-22" target="LuUeZSiwlCKiO2b5Vnxp-26" edge="1">
          <mxGeometry relative="1" as="geometry" />
        </mxCell>
        <mxCell id="LuUeZSiwlCKiO2b5Vnxp-22" value="16 &amp;lt;= 67" style="strokeWidth=2;html=1;shape=mxgraph.flowchart.decision;whiteSpace=wrap;" parent="1" vertex="1">
          <mxGeometry x="340" y="310" width="160" height="100" as="geometry" />
        </mxCell>
        <mxCell id="LuUeZSiwlCKiO2b5Vnxp-25" style="edgeStyle=orthogonalEdgeStyle;rounded=0;orthogonalLoop=1;jettySize=auto;html=1;entryX=1;entryY=0;entryDx=0;entryDy=0;" parent="1" source="LuUeZSiwlCKiO2b5Vnxp-23" target="LuUeZSiwlCKiO2b5Vnxp-16" edge="1">
          <mxGeometry relative="1" as="geometry" />
        </mxCell>
        <mxCell id="LuUeZSiwlCKiO2b5Vnxp-23" value="bilett = 50 kr" style="rounded=1;whiteSpace=wrap;html=1;strokeWidth=2;" parent="1" vertex="1">
          <mxGeometry x="360" y="440" width="120" height="60" as="geometry" />
        </mxCell>
        <mxCell id="LuUeZSiwlCKiO2b5Vnxp-29" value="" style="edgeStyle=orthogonalEdgeStyle;rounded=0;orthogonalLoop=1;jettySize=auto;html=1;" parent="1" source="LuUeZSiwlCKiO2b5Vnxp-26" target="LuUeZSiwlCKiO2b5Vnxp-28" edge="1">
          <mxGeometry relative="1" as="geometry" />
        </mxCell>
        <mxCell id="LuUeZSiwlCKiO2b5Vnxp-26" value="&amp;lt; 67" style="strokeWidth=2;html=1;shape=mxgraph.flowchart.decision;whiteSpace=wrap;" parent="1" vertex="1">
          <mxGeometry x="580" y="310" width="160" height="100" as="geometry" />
        </mxCell>
        <mxCell id="LuUeZSiwlCKiO2b5Vnxp-30" style="edgeStyle=orthogonalEdgeStyle;rounded=0;orthogonalLoop=1;jettySize=auto;html=1;entryX=1;entryY=0.25;entryDx=0;entryDy=0;" parent="1" source="LuUeZSiwlCKiO2b5Vnxp-28" target="LuUeZSiwlCKiO2b5Vnxp-16" edge="1">
          <mxGeometry relative="1" as="geometry">
            <Array as="points">
              <mxPoint x="660" y="572" />
            </Array>
          </mxGeometry>
        </mxCell>
        <mxCell id="LuUeZSiwlCKiO2b5Vnxp-28" value="pansjonbilett = 35 kr&amp;nbsp;" style="rounded=1;whiteSpace=wrap;html=1;strokeWidth=2;" parent="1" vertex="1">
          <mxGeometry x="600" y="440" width="120" height="60" as="geometry" />
        </mxCell>
      </root>
    </mxGraphModel>
  </diagram>
  <diagram id="ba7t-G7cDBkXwQO-rP02" name="Page-2">
    <mxGraphModel dx="1194" dy="605" grid="1" gridSize="10" guides="1" tooltips="1" connect="1" arrows="1" fold="1" page="1" pageScale="1" pageWidth="827" pageHeight="1169" math="0" shadow="0">
      <root>
        <mxCell id="0" />
        <mxCell id="1" parent="0" />
        <mxCell id="Ya4XnHxlEfotuKPzlE-2-5" value="Brukervalg" style="swimlane;fontStyle=1;align=center;verticalAlign=top;childLayout=stackLayout;horizontal=1;startSize=26;horizontalStack=0;resizeParent=1;resizeParentMax=0;resizeLast=0;collapsible=1;marginBottom=0;whiteSpace=wrap;html=1;" vertex="1" parent="1">
          <mxGeometry x="240" y="170" width="160" height="164" as="geometry" />
        </mxCell>
        <mxCell id="Ya4XnHxlEfotuKPzlE-2-9" value="+ Feil bokstav: int" style="text;strokeColor=none;fillColor=none;align=left;verticalAlign=top;spacingLeft=4;spacingRight=4;overflow=hidden;rotatable=0;points=[[0,0.5],[1,0.5]];portConstraint=eastwest;whiteSpace=wrap;html=1;" vertex="1" parent="Ya4XnHxlEfotuKPzlE-2-5">
          <mxGeometry y="26" width="160" height="26" as="geometry" />
        </mxCell>
        <mxCell id="Ya4XnHxlEfotuKPzlE-2-6" value="+Riktig boksav: int" style="text;strokeColor=none;fillColor=none;align=left;verticalAlign=top;spacingLeft=4;spacingRight=4;overflow=hidden;rotatable=0;points=[[0,0.5],[1,0.5]];portConstraint=eastwest;whiteSpace=wrap;html=1;" vertex="1" parent="Ya4XnHxlEfotuKPzlE-2-5">
          <mxGeometry y="52" width="160" height="26" as="geometry" />
        </mxCell>
        <mxCell id="Ya4XnHxlEfotuKPzlE-2-7" value="" style="line;strokeWidth=1;fillColor=none;align=left;verticalAlign=middle;spacingTop=-1;spacingLeft=3;spacingRight=3;rotatable=0;labelPosition=right;points=[];portConstraint=eastwest;strokeColor=inherit;" vertex="1" parent="Ya4XnHxlEfotuKPzlE-2-5">
          <mxGeometry y="78" width="160" height="8" as="geometry" />
        </mxCell>
        <mxCell id="Ya4XnHxlEfotuKPzlE-2-8" value="+heng()" style="text;strokeColor=none;fillColor=none;align=left;verticalAlign=top;spacingLeft=4;spacingRight=4;overflow=hidden;rotatable=0;points=[[0,0.5],[1,0.5]];portConstraint=eastwest;whiteSpace=wrap;html=1;" vertex="1" parent="Ya4XnHxlEfotuKPzlE-2-5">
          <mxGeometry y="86" width="160" height="26" as="geometry" />
        </mxCell>
        <mxCell id="Ya4XnHxlEfotuKPzlE-2-11" value="+seier()" style="text;strokeColor=none;fillColor=none;align=left;verticalAlign=top;spacingLeft=4;spacingRight=4;overflow=hidden;rotatable=0;points=[[0,0.5],[1,0.5]];portConstraint=eastwest;whiteSpace=wrap;html=1;" vertex="1" parent="Ya4XnHxlEfotuKPzlE-2-5">
          <mxGeometry y="112" width="160" height="26" as="geometry" />
        </mxCell>
        <mxCell id="Ya4XnHxlEfotuKPzlE-2-18" value="+Legge_til_Bokstav()" style="text;strokeColor=none;fillColor=none;align=left;verticalAlign=top;spacingLeft=4;spacingRight=4;overflow=hidden;rotatable=0;points=[[0,0.5],[1,0.5]];portConstraint=eastwest;whiteSpace=wrap;html=1;" vertex="1" parent="Ya4XnHxlEfotuKPzlE-2-5">
          <mxGeometry y="138" width="160" height="26" as="geometry" />
        </mxCell>
        <mxCell id="Ya4XnHxlEfotuKPzlE-2-12" value="Hangman" style="swimlane;fontStyle=1;align=center;verticalAlign=top;childLayout=stackLayout;horizontal=1;startSize=26;horizontalStack=0;resizeParent=1;resizeParentMax=0;resizeLast=0;collapsible=1;marginBottom=0;whiteSpace=wrap;html=1;" vertex="1" parent="1">
          <mxGeometry x="470" y="334" width="160" height="138" as="geometry" />
        </mxCell>
        <mxCell id="Ya4XnHxlEfotuKPzlE-2-13" value="+ gjett_bokstav: input" style="text;strokeColor=none;fillColor=none;align=left;verticalAlign=top;spacingLeft=4;spacingRight=4;overflow=hidden;rotatable=0;points=[[0,0.5],[1,0.5]];portConstraint=eastwest;whiteSpace=wrap;html=1;" vertex="1" parent="Ya4XnHxlEfotuKPzlE-2-12">
          <mxGeometry y="26" width="160" height="26" as="geometry" />
        </mxCell>
        <mxCell id="Ya4XnHxlEfotuKPzlE-2-14" value="" style="line;strokeWidth=1;fillColor=none;align=left;verticalAlign=middle;spacingTop=-1;spacingLeft=3;spacingRight=3;rotatable=0;labelPosition=right;points=[];portConstraint=eastwest;strokeColor=inherit;" vertex="1" parent="Ya4XnHxlEfotuKPzlE-2-12">
          <mxGeometry y="52" width="160" height="8" as="geometry" />
        </mxCell>
        <mxCell id="Ya4XnHxlEfotuKPzlE-2-15" value="+Meny()" style="text;strokeColor=none;fillColor=none;align=left;verticalAlign=top;spacingLeft=4;spacingRight=4;overflow=hidden;rotatable=0;points=[[0,0.5],[1,0.5]];portConstraint=eastwest;whiteSpace=wrap;html=1;" vertex="1" parent="Ya4XnHxlEfotuKPzlE-2-12">
          <mxGeometry y="60" width="160" height="26" as="geometry" />
        </mxCell>
        <mxCell id="Ya4XnHxlEfotuKPzlE-2-16" value="+Start()" style="text;strokeColor=none;fillColor=none;align=left;verticalAlign=top;spacingLeft=4;spacingRight=4;overflow=hidden;rotatable=0;points=[[0,0.5],[1,0.5]];portConstraint=eastwest;whiteSpace=wrap;html=1;" vertex="1" parent="Ya4XnHxlEfotuKPzlE-2-12">
          <mxGeometry y="86" width="160" height="26" as="geometry" />
        </mxCell>
        <mxCell id="Ya4XnHxlEfotuKPzlE-2-17" value="+Avslutt()" style="text;strokeColor=none;fillColor=none;align=left;verticalAlign=top;spacingLeft=4;spacingRight=4;overflow=hidden;rotatable=0;points=[[0,0.5],[1,0.5]];portConstraint=eastwest;whiteSpace=wrap;html=1;" vertex="1" parent="Ya4XnHxlEfotuKPzlE-2-12">
          <mxGeometry y="112" width="160" height="26" as="geometry" />
        </mxCell>
        <mxCell id="Ya4XnHxlEfotuKPzlE-2-19" value="Velg kateogri" style="swimlane;fontStyle=1;align=center;verticalAlign=top;childLayout=stackLayout;horizontal=1;startSize=26;horizontalStack=0;resizeParent=1;resizeParentMax=0;resizeLast=0;collapsible=1;marginBottom=0;whiteSpace=wrap;html=1;" vertex="1" parent="1">
          <mxGeometry x="70" y="390" width="160" height="138" as="geometry" />
        </mxCell>
        <mxCell id="Ya4XnHxlEfotuKPzlE-2-20" value="+ Kategori 1: list" style="text;strokeColor=none;fillColor=none;align=left;verticalAlign=top;spacingLeft=4;spacingRight=4;overflow=hidden;rotatable=0;points=[[0,0.5],[1,0.5]];portConstraint=eastwest;whiteSpace=wrap;html=1;" vertex="1" parent="Ya4XnHxlEfotuKPzlE-2-19">
          <mxGeometry y="26" width="160" height="26" as="geometry" />
        </mxCell>
        <mxCell id="Ya4XnHxlEfotuKPzlE-2-25" value="+ Kategori 2: list" style="text;strokeColor=none;fillColor=none;align=left;verticalAlign=top;spacingLeft=4;spacingRight=4;overflow=hidden;rotatable=0;points=[[0,0.5],[1,0.5]];portConstraint=eastwest;whiteSpace=wrap;html=1;" vertex="1" parent="Ya4XnHxlEfotuKPzlE-2-19">
          <mxGeometry y="52" width="160" height="26" as="geometry" />
        </mxCell>
        <mxCell id="Ya4XnHxlEfotuKPzlE-2-26" value="+ Kategori 3: list" style="text;strokeColor=none;fillColor=none;align=left;verticalAlign=top;spacingLeft=4;spacingRight=4;overflow=hidden;rotatable=0;points=[[0,0.5],[1,0.5]];portConstraint=eastwest;whiteSpace=wrap;html=1;" vertex="1" parent="Ya4XnHxlEfotuKPzlE-2-19">
          <mxGeometry y="78" width="160" height="26" as="geometry" />
        </mxCell>
        <mxCell id="Ya4XnHxlEfotuKPzlE-2-21" value="" style="line;strokeWidth=1;fillColor=none;align=left;verticalAlign=middle;spacingTop=-1;spacingLeft=3;spacingRight=3;rotatable=0;labelPosition=right;points=[];portConstraint=eastwest;strokeColor=inherit;" vertex="1" parent="Ya4XnHxlEfotuKPzlE-2-19">
          <mxGeometry y="104" width="160" height="8" as="geometry" />
        </mxCell>
        <mxCell id="Ya4XnHxlEfotuKPzlE-2-22" value="+Random()" style="text;strokeColor=none;fillColor=none;align=left;verticalAlign=top;spacingLeft=4;spacingRight=4;overflow=hidden;rotatable=0;points=[[0,0.5],[1,0.5]];portConstraint=eastwest;whiteSpace=wrap;html=1;" vertex="1" parent="Ya4XnHxlEfotuKPzlE-2-19">
          <mxGeometry y="112" width="160" height="26" as="geometry" />
        </mxCell>
        <mxCell id="Ya4XnHxlEfotuKPzlE-2-27" style="edgeStyle=orthogonalEdgeStyle;rounded=0;orthogonalLoop=1;jettySize=auto;html=1;entryX=0.988;entryY=0.109;entryDx=0;entryDy=0;entryPerimeter=0;" edge="1" parent="1" source="Ya4XnHxlEfotuKPzlE-2-5" target="Ya4XnHxlEfotuKPzlE-2-19">
          <mxGeometry relative="1" as="geometry" />
        </mxCell>
        <mxCell id="Ya4XnHxlEfotuKPzlE-2-28" style="edgeStyle=orthogonalEdgeStyle;rounded=0;orthogonalLoop=1;jettySize=auto;html=1;entryX=-0.012;entryY=1;entryDx=0;entryDy=0;entryPerimeter=0;" edge="1" parent="1" source="Ya4XnHxlEfotuKPzlE-2-5" target="Ya4XnHxlEfotuKPzlE-2-13">
          <mxGeometry relative="1" as="geometry" />
        </mxCell>
      </root>
    </mxGraphModel>
  </diagram>
</mxfile>
